<svg width="57" height="39" viewBox="0 0 57 39" fill="none" xmlns="http://www.w3.org/2000/svg">
<path d="M0 39H7.01107L27.3096 17.9411L13.4582 3.16931L16.793 0H3.46286L11.2543 3.85262L24.4961 17.5016L8.56875 33.5885L0 39ZM40.1612 0H20.2986L27.3096 3.65689V35.3431L20.2986 39H36.6588L29.6904 35.3431V3.65689L32.0284 2.43793H40.1643C43.8862 2.43793 47.0016 5.02007 47.0016 9.16455C47.0016 13.309 43.8862 15.9392 40.1643 15.9392H31.5498L29.6904 17.9377L49.9889 38.9966H57L48.4313 33.585L33.3696 18.3737H40.1643C45.3159 18.3737 49.5987 14.6688 49.5987 9.16112C49.5987 3.65346 45.3128 0 40.1612 0Z" fill="white"/>
</svg>
